
<svg width="196" height="210" viewBox="0 0 196 210" fill="none" xmlns="http://www.w3.org/2000/svg">
<path d="M98.6511 207L193 166.958L98.6511 127.276L98.5547 127.316L98.6511 207Z" fill="#1E1727"/>
<path d="M192.753 42.6822L98.5007 82.6832L98.5547 127.316L98.6511 127.276L193 166.958L192.753 42.6822Z" fill="#1E1727"/>
<path d="M3.24679 167.146L98.6511 207L98.5547 127.316L3.24679 167.146Z" fill="#1E1727"/>
<path d="M98.4043 82.7241L3 42.8703L3.24679 167.146L98.5547 127.316L98.5007 82.6832L98.4043 82.7241Z" fill="#1E1727"/>
<path d="M3 42.8703L98.4043 82.7241L98.5007 82.6832L98.4043 3L3 42.8703Z" fill="#1E1727"/>
<path d="M192.753 42.6822L98.4043 3L98.5007 82.6832L192.753 42.6822Z" fill="#1E1727"/>
<path d="M3 42.8703L98.4043 82.7241L98.5007 82.6832M3 42.8703L98.4043 3M3 42.8703L3.24679 167.146M192.753 42.6822L98.4043 3M192.753 42.6822L193 166.958M192.753 42.6822L98.5007 82.6832M98.4043 3L98.5007 82.6832M98.6511 207L3.24679 167.146M98.6511 207L193 166.958M98.6511 207L98.5547 127.316M3.24679 167.146L98.5547 127.316M193 166.958L98.6511 127.276L98.5547 127.316M98.5547 127.316L98.5007 82.6832" stroke="#CBA6F7" stroke-width="5"/>
</svg>

